# xmcd CD database file
#
# Track frame offsets:
#	150
#	25077
#	69700
#	96420
#	113310
#	152955
#	198955
#
# Disc length: 3164 seconds
#
# Revision: 0
# Processed by: cddbd v1.5.1PL0 Copyright (c) Steve Scherf et al.
# Submitted via: CDex 1.50
#
DISCID=540c5a07
DTITLE=Volker Rogall and Gregor van Buggenum - Two Piano Jazz   Live
DYEAR=1987
DGENRE=Jazz
TTITLE0=Oleo
TTITLE1=Someday My Prince Will Come
TTITLE2=Autumn Leaves
TTITLE3=Giant Steps
TTITLE4=Windows
TTITLE5=Blue In Green
TTITLE6=Samba De Cologne
EXTD=YEAR: 1987
EXTT0=
EXTT1=
EXTT2=
EXTT3=
EXTT4=
EXTT5=
EXTT6=
PLAYORDER=
